<svg width="592" height="226" viewBox="0 0 592 226" fill="none" xmlns="http://www.w3.org/2000/svg">
<path d="M23.0703 194.658C23.1699 194.005 23.109 193.457 22.8877 193.015C22.6663 192.561 22.3454 192.185 21.9248 191.886C21.5153 191.576 21.0505 191.316 20.5303 191.105C20.0101 190.895 19.4954 190.696 18.9863 190.508C18.1452 190.209 17.3151 189.855 16.4961 189.445C15.6771 189.036 14.9355 188.549 14.2715 187.984C13.6185 187.42 13.1094 186.756 12.7441 185.992C12.3789 185.217 12.2295 184.315 12.2959 183.286C12.3844 182.124 12.7109 181.117 13.2754 180.265C13.8509 179.401 14.5814 178.688 15.4668 178.123C16.3522 177.559 17.3206 177.144 18.3721 176.878C19.4235 176.601 20.4694 176.474 21.5098 176.496C22.9818 176.529 24.2933 176.845 25.4443 177.442C26.5954 178.04 27.4974 178.887 28.1504 179.982C28.8034 181.078 29.1022 182.379 29.0469 183.884H24.9961C25.0625 183.043 24.9574 182.323 24.6807 181.726C24.415 181.117 23.9945 180.646 23.4189 180.314C22.8434 179.971 22.1296 179.794 21.2773 179.783C20.5137 179.761 19.7777 179.877 19.0693 180.132C18.361 180.375 17.7578 180.757 17.2598 181.277C16.7728 181.798 16.4684 182.467 16.3467 183.286C16.2581 183.862 16.3356 184.36 16.5791 184.78C16.8337 185.201 17.1823 185.555 17.625 185.843C18.0677 186.131 18.5436 186.374 19.0527 186.573C19.5618 186.772 20.0378 186.95 20.4805 187.104C21.377 187.414 22.2347 187.785 23.0537 188.217C23.8838 188.637 24.6198 189.141 25.2617 189.728C25.9036 190.314 26.3962 191.011 26.7393 191.819C27.0824 192.616 27.2152 193.551 27.1377 194.625C27.0381 195.809 26.7061 196.833 26.1416 197.696C25.5771 198.549 24.8577 199.246 23.9834 199.788C23.109 200.33 22.1462 200.729 21.0947 200.983C20.0433 201.238 18.9808 201.354 17.9072 201.332C16.7673 201.321 15.6882 201.144 14.6699 200.801C13.6628 200.458 12.7773 199.96 12.0137 199.307C11.25 198.643 10.6579 197.84 10.2373 196.899C9.8278 195.959 9.64518 194.885 9.68945 193.679L13.7402 193.695C13.696 194.404 13.7624 195.035 13.9395 195.588C14.1276 196.13 14.4154 196.584 14.8027 196.949C15.1901 197.314 15.6605 197.591 16.2139 197.779C16.7783 197.967 17.4092 198.062 18.1064 198.062C18.859 198.084 19.5895 197.979 20.2979 197.746C21.0173 197.514 21.626 197.148 22.124 196.65C22.6331 196.141 22.9486 195.477 23.0703 194.658ZM37.3145 201.332C36.0859 201.31 34.9958 201.072 34.0439 200.618C33.1032 200.153 32.3229 199.528 31.7031 198.742C31.0833 197.945 30.6351 197.032 30.3584 196.003C30.0817 194.963 29.9876 193.856 30.0762 192.683L30.1426 192.002C30.2643 190.796 30.5576 189.633 31.0225 188.516C31.4873 187.387 32.1071 186.385 32.8818 185.511C33.6676 184.625 34.5918 183.928 35.6543 183.419C36.7168 182.91 37.901 182.672 39.207 182.705C40.4577 182.727 41.5146 182.987 42.3779 183.485C43.2412 183.983 43.9274 184.647 44.4365 185.478C44.9456 186.297 45.2832 187.226 45.4492 188.267C45.6263 189.307 45.654 190.386 45.5322 191.504L45.2998 193.214H31.8193L32.2842 190.342L41.7969 190.358L41.8633 190.01C41.9629 189.312 41.9242 188.654 41.7471 188.034C41.5811 187.414 41.2712 186.905 40.8174 186.507C40.3636 186.108 39.7549 185.898 38.9912 185.876C38.1611 185.854 37.4473 186.025 36.8496 186.391C36.263 186.756 35.776 187.248 35.3887 187.868C35.0013 188.488 34.6969 189.163 34.4756 189.894C34.2653 190.613 34.1159 191.316 34.0273 192.002L33.9609 192.666C33.8945 193.319 33.9111 193.966 34.0107 194.608C34.1104 195.25 34.304 195.837 34.5918 196.368C34.8796 196.888 35.278 197.314 35.7871 197.646C36.2962 197.967 36.9271 198.139 37.6797 198.161C38.6204 198.183 39.4727 197.99 40.2363 197.58C41.0111 197.16 41.7139 196.617 42.3447 195.953L44.2705 197.995C43.7614 198.759 43.1305 199.39 42.3779 199.888C41.6364 200.386 40.8285 200.757 39.9541 201C39.0908 201.232 38.2109 201.343 37.3145 201.332ZM57.4023 197.397L58.7637 188.781C58.8301 188.206 58.7913 187.686 58.6475 187.221C58.5036 186.756 58.238 186.391 57.8506 186.125C57.4743 185.848 56.9762 185.704 56.3564 185.693C55.8031 185.682 55.2829 185.776 54.7959 185.976C54.3089 186.164 53.8939 186.446 53.5508 186.822C53.2188 187.199 52.9974 187.658 52.8867 188.2L48.9854 188.217C49.0518 187.276 49.3285 186.457 49.8154 185.76C50.3135 185.051 50.9388 184.47 51.6914 184.017C52.4551 183.552 53.2741 183.214 54.1484 183.004C55.0339 182.783 55.8971 182.677 56.7383 182.688C57.9557 182.711 59.0348 182.971 59.9756 183.469C60.9163 183.967 61.6302 184.67 62.1172 185.577C62.6152 186.485 62.8034 187.58 62.6816 188.864L61.3701 196.866C61.2705 197.497 61.1986 198.145 61.1543 198.809C61.1211 199.462 61.2096 200.092 61.4199 200.701L61.3867 201L57.5186 201.017C57.3525 200.43 57.2695 199.832 57.2695 199.224C57.2695 198.604 57.3138 197.995 57.4023 197.397ZM59.2119 190.076L58.8135 192.55L56.2236 192.533C55.6924 192.533 55.1445 192.583 54.5801 192.683C54.0267 192.782 53.5065 192.954 53.0195 193.197C52.5326 193.441 52.123 193.773 51.791 194.193C51.459 194.603 51.2542 195.118 51.1768 195.737C51.1214 196.235 51.1768 196.667 51.3428 197.032C51.5199 197.386 51.7855 197.669 52.1396 197.879C52.4938 198.089 52.9144 198.2 53.4014 198.211C54.0544 198.222 54.6963 198.095 55.3271 197.829C55.9691 197.563 56.5225 197.187 56.9873 196.7C57.4632 196.202 57.7897 195.632 57.9668 194.99L59.0127 196.783C58.7692 197.458 58.4261 198.078 57.9834 198.643C57.5518 199.207 57.0482 199.694 56.4727 200.104C55.8971 200.513 55.2663 200.828 54.5801 201.05C53.9049 201.271 53.2077 201.376 52.4883 201.365C51.4922 201.343 50.5846 201.116 49.7656 200.685C48.9466 200.242 48.2992 199.628 47.8232 198.842C47.3473 198.056 47.137 197.148 47.1924 196.119C47.2477 194.957 47.541 193.989 48.0723 193.214C48.6146 192.428 49.3063 191.808 50.1475 191.354C50.9997 190.89 51.9294 190.558 52.9365 190.358C53.9437 190.159 54.9398 190.06 55.9248 190.06L59.2119 190.076ZM71.1152 186.656L68.625 201H64.7236L67.8447 183.037H71.5469L71.1152 186.656ZM76.959 182.888L76.5273 186.623C76.2728 186.579 76.0127 186.54 75.7471 186.507C75.4925 186.474 75.238 186.457 74.9834 186.457C74.3083 186.446 73.6995 186.54 73.1572 186.739C72.6149 186.938 72.139 187.226 71.7295 187.603C71.32 187.968 70.9769 188.41 70.7002 188.931C70.4235 189.44 70.2077 190.01 70.0527 190.641L69.123 190.707C69.2337 189.833 69.4219 188.925 69.6875 187.984C69.9642 187.044 70.346 186.169 70.833 185.361C71.32 184.542 71.9398 183.884 72.6924 183.386C73.445 182.877 74.3581 182.633 75.4316 182.655C75.6862 182.655 75.9408 182.677 76.1953 182.722C76.4499 182.766 76.7044 182.821 76.959 182.888ZM83.7324 198.161C84.3854 198.172 84.9831 198.05 85.5254 197.796C86.0677 197.541 86.516 197.176 86.8701 196.7C87.2354 196.224 87.4899 195.676 87.6338 195.057L91.3359 195.04C91.1921 196.324 90.7383 197.442 89.9746 198.394C89.222 199.345 88.2812 200.081 87.1523 200.602C86.0345 201.111 84.8503 201.354 83.5996 201.332C82.3268 201.31 81.2367 201.05 80.3291 200.552C79.4326 200.054 78.7077 199.384 78.1543 198.543C77.6009 197.702 77.2135 196.75 76.9922 195.688C76.7819 194.614 76.7321 193.502 76.8428 192.351L76.9092 191.753C77.042 190.524 77.3353 189.362 77.7891 188.267C78.2539 187.171 78.8682 186.202 79.6318 185.361C80.4066 184.509 81.3197 183.845 82.3711 183.369C83.4225 182.893 84.6068 182.672 85.9238 182.705C87.252 182.727 88.3975 183.032 89.3604 183.618C90.3232 184.205 91.0592 185.007 91.5684 186.025C92.0775 187.033 92.3265 188.184 92.3154 189.479L88.6465 189.462C88.6465 188.842 88.5413 188.267 88.3311 187.735C88.1318 187.193 87.8109 186.756 87.3682 186.424C86.9365 186.081 86.3721 185.898 85.6748 185.876C84.8558 185.854 84.153 186.014 83.5664 186.357C82.9909 186.701 82.5094 187.165 82.1221 187.752C81.7458 188.339 81.4469 188.986 81.2256 189.694C81.0153 190.392 80.8714 191.083 80.7939 191.77L80.7275 192.351C80.6722 192.937 80.6501 193.568 80.6611 194.243C80.6833 194.907 80.7884 195.533 80.9766 196.119C81.1647 196.706 81.4746 197.187 81.9062 197.563C82.349 197.94 82.9577 198.139 83.7324 198.161ZM101.546 175.5L97.1133 201H93.2119L97.6445 175.5H101.546ZM98.1592 191.354H96.9307C97.0745 190.314 97.3346 189.279 97.7109 188.25C98.0983 187.21 98.6185 186.269 99.2715 185.428C99.9245 184.576 100.71 183.9 101.629 183.402C102.548 182.904 103.61 182.672 104.816 182.705C105.801 182.727 106.62 182.921 107.273 183.286C107.938 183.651 108.458 184.149 108.834 184.78C109.21 185.4 109.459 186.114 109.581 186.922C109.703 187.719 109.714 188.565 109.614 189.462L107.688 201H103.754L105.713 189.412C105.779 188.759 105.757 188.173 105.646 187.652C105.536 187.132 105.292 186.717 104.916 186.407C104.54 186.086 103.992 185.92 103.272 185.909C102.498 185.887 101.812 186.031 101.214 186.341C100.627 186.651 100.124 187.071 99.7031 187.603C99.2936 188.134 98.9616 188.726 98.707 189.379C98.4525 190.032 98.2699 190.69 98.1592 191.354ZM136.293 197.696L135.712 201H123.244L123.809 197.696H136.293ZM128.606 176.828L124.406 201H120.322L124.522 176.828H128.606ZM136.525 186.922L135.961 190.176H125.104L125.685 186.922H136.525ZM139.812 176.828L139.231 180.148H126.847L127.444 176.828H139.812ZM144.893 187.104L142.485 201H138.567L141.688 183.037H145.357L144.893 187.104ZM143.515 191.354L142.319 191.371C142.452 190.298 142.712 189.241 143.1 188.2C143.498 187.149 144.024 186.208 144.677 185.378C145.33 184.537 146.121 183.873 147.051 183.386C147.992 182.899 149.076 182.672 150.305 182.705C151.279 182.727 152.087 182.921 152.729 183.286C153.382 183.651 153.885 184.144 154.239 184.764C154.604 185.383 154.842 186.092 154.953 186.889C155.064 187.686 155.069 188.521 154.97 189.396L153.044 201H149.109L151.068 189.346C151.135 188.704 151.113 188.128 151.002 187.619C150.891 187.099 150.648 186.689 150.271 186.391C149.895 186.081 149.353 185.92 148.645 185.909C147.87 185.887 147.189 186.031 146.603 186.341C146.016 186.651 145.512 187.077 145.092 187.619C144.671 188.15 144.328 188.743 144.062 189.396C143.808 190.049 143.625 190.701 143.515 191.354ZM171.223 183.037H174.809L171.837 200.485C171.616 202.068 171.095 203.435 170.276 204.586C169.468 205.737 168.423 206.617 167.139 207.226C165.855 207.845 164.416 208.133 162.822 208.089C162.025 208.078 161.24 207.951 160.465 207.707C159.69 207.475 158.971 207.137 158.307 206.694C157.643 206.252 157.073 205.704 156.597 205.051L158.639 202.727C159.148 203.413 159.745 203.955 160.432 204.354C161.118 204.752 161.887 204.962 162.739 204.984C163.669 205.007 164.493 204.835 165.213 204.47C165.932 204.116 166.519 203.606 166.973 202.942C167.438 202.278 167.742 201.493 167.886 200.585L170.21 186.905L171.223 183.037ZM157.825 192.351L157.875 191.985C158.008 190.879 158.273 189.772 158.672 188.665C159.07 187.547 159.602 186.535 160.266 185.627C160.941 184.708 161.76 183.983 162.723 183.452C163.697 182.921 164.831 182.666 166.126 182.688C167.299 182.722 168.262 183.009 169.015 183.552C169.778 184.094 170.365 184.797 170.774 185.66C171.195 186.523 171.477 187.464 171.621 188.482C171.765 189.501 171.809 190.508 171.754 191.504L171.621 192.633C171.444 193.662 171.145 194.697 170.725 195.737C170.304 196.778 169.756 197.729 169.081 198.593C168.417 199.445 167.62 200.126 166.69 200.635C165.772 201.144 164.715 201.382 163.52 201.349C162.335 201.315 161.35 201.022 160.564 200.469C159.779 199.904 159.17 199.179 158.738 198.294C158.307 197.409 158.019 196.446 157.875 195.405C157.742 194.365 157.726 193.347 157.825 192.351ZM161.793 191.985L161.76 192.334C161.693 192.921 161.671 193.54 161.693 194.193C161.715 194.846 161.821 195.466 162.009 196.053C162.197 196.639 162.507 197.126 162.938 197.514C163.37 197.89 163.957 198.089 164.698 198.111C165.595 198.156 166.386 197.967 167.072 197.547C167.77 197.126 168.345 196.567 168.799 195.87C169.264 195.173 169.59 194.42 169.778 193.612L170.243 190.574C170.287 190.01 170.254 189.456 170.144 188.914C170.033 188.361 169.839 187.863 169.562 187.42C169.297 186.977 168.943 186.623 168.5 186.357C168.057 186.081 167.521 185.937 166.89 185.926C166.06 185.893 165.34 186.059 164.731 186.424C164.134 186.789 163.63 187.276 163.221 187.885C162.822 188.493 162.507 189.158 162.274 189.877C162.042 190.596 161.882 191.299 161.793 191.985ZM182.96 183.037L179.839 201H175.938L179.059 183.037H182.96ZM179.606 178.389C179.595 177.747 179.806 177.221 180.237 176.812C180.669 176.402 181.2 176.192 181.831 176.181C182.44 176.17 182.96 176.358 183.392 176.745C183.834 177.121 184.056 177.625 184.056 178.256C184.067 178.898 183.851 179.418 183.408 179.816C182.977 180.215 182.451 180.42 181.831 180.431C181.222 180.442 180.702 180.265 180.271 179.899C179.839 179.523 179.618 179.02 179.606 178.389ZM190.348 187.104L187.94 201H184.022L187.144 183.037H190.812L190.348 187.104ZM188.97 191.354L187.774 191.371C187.907 190.298 188.167 189.241 188.555 188.2C188.953 187.149 189.479 186.208 190.132 185.378C190.785 184.537 191.576 183.873 192.506 183.386C193.447 182.899 194.531 182.672 195.76 182.705C196.734 182.727 197.542 182.921 198.184 183.286C198.837 183.651 199.34 184.144 199.694 184.764C200.06 185.383 200.298 186.092 200.408 186.889C200.519 187.686 200.524 188.521 200.425 189.396L198.499 201H194.564L196.523 189.346C196.59 188.704 196.568 188.128 196.457 187.619C196.346 187.099 196.103 186.689 195.727 186.391C195.35 186.081 194.808 185.92 194.1 185.909C193.325 185.887 192.644 186.031 192.058 186.341C191.471 186.651 190.967 187.077 190.547 187.619C190.126 188.15 189.783 188.743 189.518 189.396C189.263 190.049 189.08 190.701 188.97 191.354ZM210.502 201.332C209.273 201.31 208.183 201.072 207.231 200.618C206.291 200.153 205.51 199.528 204.891 198.742C204.271 197.945 203.823 197.032 203.546 196.003C203.269 194.963 203.175 193.856 203.264 192.683L203.33 192.002C203.452 190.796 203.745 189.633 204.21 188.516C204.675 187.387 205.295 186.385 206.069 185.511C206.855 184.625 207.779 183.928 208.842 183.419C209.904 182.91 211.089 182.672 212.395 182.705C213.645 182.727 214.702 182.987 215.565 183.485C216.429 183.983 217.115 184.647 217.624 185.478C218.133 186.297 218.471 187.226 218.637 188.267C218.814 189.307 218.841 190.386 218.72 191.504L218.487 193.214H205.007L205.472 190.342L214.984 190.358L215.051 190.01C215.15 189.312 215.112 188.654 214.935 188.034C214.769 187.414 214.459 186.905 214.005 186.507C213.551 186.108 212.942 185.898 212.179 185.876C211.349 185.854 210.635 186.025 210.037 186.391C209.451 186.756 208.964 187.248 208.576 187.868C208.189 188.488 207.884 189.163 207.663 189.894C207.453 190.613 207.303 191.316 207.215 192.002L207.148 192.666C207.082 193.319 207.099 193.966 207.198 194.608C207.298 195.25 207.492 195.837 207.779 196.368C208.067 196.888 208.465 197.314 208.975 197.646C209.484 197.967 210.115 198.139 210.867 198.161C211.808 198.183 212.66 197.99 213.424 197.58C214.199 197.16 214.901 196.617 215.532 195.953L217.458 197.995C216.949 198.759 216.318 199.39 215.565 199.888C214.824 200.386 214.016 200.757 213.142 201C212.278 201.232 211.398 201.343 210.502 201.332ZM233.744 201H229.826L233.18 181.311C233.335 180.049 233.711 178.953 234.309 178.023C234.906 177.083 235.692 176.358 236.666 175.849C237.64 175.34 238.78 175.09 240.086 175.102C240.484 175.113 240.883 175.146 241.281 175.201C241.68 175.257 242.073 175.328 242.46 175.417L242.078 178.538C241.835 178.483 241.586 178.438 241.331 178.405C241.088 178.372 240.839 178.35 240.584 178.339C239.953 178.339 239.394 178.461 238.907 178.704C238.431 178.948 238.038 179.291 237.729 179.733C237.43 180.165 237.23 180.691 237.131 181.311L233.744 201ZM240.451 183.037L239.92 185.959H229.76L230.291 183.037H240.451ZM240.933 192.317L240.982 191.936C241.115 190.696 241.42 189.517 241.896 188.399C242.371 187.282 243.002 186.291 243.788 185.428C244.585 184.553 245.52 183.873 246.594 183.386C247.678 182.899 248.885 182.672 250.213 182.705C251.497 182.727 252.598 182.993 253.517 183.502C254.446 184.011 255.199 184.692 255.774 185.544C256.361 186.385 256.771 187.348 257.003 188.433C257.235 189.506 257.296 190.63 257.186 191.803L257.152 192.185C257.008 193.424 256.693 194.597 256.206 195.704C255.73 196.811 255.094 197.796 254.297 198.659C253.511 199.511 252.576 200.181 251.491 200.668C250.418 201.144 249.222 201.365 247.905 201.332C246.632 201.31 245.531 201.05 244.602 200.552C243.683 200.043 242.93 199.368 242.344 198.526C241.768 197.685 241.364 196.733 241.132 195.671C240.899 194.597 240.833 193.479 240.933 192.317ZM244.867 191.936L244.834 192.317C244.779 192.926 244.773 193.568 244.817 194.243C244.862 194.918 244.994 195.549 245.216 196.136C245.437 196.722 245.78 197.204 246.245 197.58C246.71 197.956 247.33 198.156 248.104 198.178C248.924 198.2 249.637 198.034 250.246 197.68C250.855 197.326 251.364 196.85 251.773 196.252C252.183 195.654 252.509 195.001 252.753 194.293C252.996 193.574 253.157 192.871 253.234 192.185L253.268 191.803C253.334 191.205 253.345 190.569 253.301 189.894C253.257 189.207 253.124 188.565 252.902 187.968C252.681 187.359 252.338 186.867 251.873 186.49C251.408 186.103 250.788 185.898 250.014 185.876C249.184 185.854 248.464 186.025 247.855 186.391C247.247 186.745 246.738 187.226 246.328 187.835C245.919 188.444 245.592 189.108 245.349 189.827C245.116 190.547 244.956 191.249 244.867 191.936ZM265.254 186.656L262.764 201H258.862L261.983 183.037H265.686L265.254 186.656ZM271.098 182.888L270.666 186.623C270.411 186.579 270.151 186.54 269.886 186.507C269.631 186.474 269.377 186.457 269.122 186.457C268.447 186.446 267.838 186.54 267.296 186.739C266.754 186.938 266.278 187.226 265.868 187.603C265.459 187.968 265.116 188.41 264.839 188.931C264.562 189.44 264.346 190.01 264.191 190.641L263.262 190.707C263.372 189.833 263.561 188.925 263.826 187.984C264.103 187.044 264.485 186.169 264.972 185.361C265.459 184.542 266.078 183.884 266.831 183.386C267.584 182.877 268.497 182.633 269.57 182.655C269.825 182.655 270.079 182.677 270.334 182.722C270.589 182.766 270.843 182.821 271.098 182.888ZM292.016 180.265L281.474 201H277.058L290.073 176.828H292.912L292.016 180.265ZM294.307 201L290.887 179.816L291.136 176.828H293.775L298.44 201H294.307ZM295.485 192.035L294.904 195.339H282.121L282.702 192.035H295.485ZM307.156 186.656L304.666 201H300.765L303.886 183.037H307.588L307.156 186.656ZM313 182.888L312.568 186.623C312.314 186.579 312.054 186.54 311.788 186.507C311.534 186.474 311.279 186.457 311.024 186.457C310.349 186.446 309.741 186.54 309.198 186.739C308.656 186.938 308.18 187.226 307.771 187.603C307.361 187.968 307.018 188.41 306.741 188.931C306.465 189.44 306.249 190.01 306.094 190.641L305.164 190.707C305.275 189.833 305.463 188.925 305.729 187.984C306.005 187.044 306.387 186.169 306.874 185.361C307.361 184.542 307.981 183.884 308.733 183.386C309.486 182.877 310.399 182.633 311.473 182.655C311.727 182.655 311.982 182.677 312.236 182.722C312.491 182.766 312.745 182.821 313 182.888ZM324.355 183.037L323.841 185.959H314.013L314.511 183.037H324.355ZM318.113 178.638H322.015L319.043 196.069C318.999 196.457 318.999 196.794 319.043 197.082C319.098 197.37 319.226 197.597 319.425 197.763C319.635 197.918 319.956 198.001 320.388 198.012C320.62 198.023 320.853 198.012 321.085 197.979C321.328 197.945 321.572 197.912 321.815 197.879L321.533 200.967C321.135 201.089 320.725 201.177 320.305 201.232C319.895 201.288 319.48 201.31 319.06 201.299C318.063 201.288 317.261 201.061 316.652 200.618C316.044 200.164 315.618 199.561 315.374 198.809C315.131 198.056 315.053 197.215 315.142 196.285L318.113 178.638ZM331.511 183.037L328.39 201H324.488L327.609 183.037H331.511ZM328.157 178.389C328.146 177.747 328.356 177.221 328.788 176.812C329.22 176.402 329.751 176.192 330.382 176.181C330.991 176.17 331.511 176.358 331.942 176.745C332.385 177.121 332.606 177.625 332.606 178.256C332.618 178.898 332.402 179.418 331.959 179.816C331.527 180.215 331.002 180.42 330.382 180.431C329.773 180.442 329.253 180.265 328.821 179.899C328.39 179.523 328.168 179.02 328.157 178.389ZM337.62 201H333.702L336.973 181.892C337.161 180.442 337.609 179.213 338.317 178.206C339.026 177.188 339.944 176.413 341.073 175.882C342.213 175.351 343.508 175.096 344.958 175.118C345.821 175.14 346.668 175.257 347.498 175.467C348.328 175.666 349.153 175.887 349.972 176.131L349.059 179.401C348.417 179.147 347.758 178.942 347.083 178.787C346.419 178.632 345.744 178.555 345.058 178.555C343.929 178.533 342.999 178.804 342.269 179.368C341.538 179.922 341.084 180.757 340.907 181.875L337.62 201ZM344.261 183.037L343.729 185.959H333.652L334.167 183.037H344.261ZM350.735 183.037L347.614 201H343.696L346.817 183.037H350.735ZM359.617 198.161C360.27 198.172 360.868 198.05 361.41 197.796C361.952 197.541 362.401 197.176 362.755 196.7C363.12 196.224 363.375 195.676 363.519 195.057L367.221 195.04C367.077 196.324 366.623 197.442 365.859 198.394C365.107 199.345 364.166 200.081 363.037 200.602C361.919 201.111 360.735 201.354 359.484 201.332C358.212 201.31 357.121 201.05 356.214 200.552C355.317 200.054 354.592 199.384 354.039 198.543C353.486 197.702 353.098 196.75 352.877 195.688C352.667 194.614 352.617 193.502 352.728 192.351L352.794 191.753C352.927 190.524 353.22 189.362 353.674 188.267C354.139 187.171 354.753 186.202 355.517 185.361C356.291 184.509 357.204 183.845 358.256 183.369C359.307 182.893 360.492 182.672 361.809 182.705C363.137 182.727 364.282 183.032 365.245 183.618C366.208 184.205 366.944 185.007 367.453 186.025C367.962 187.033 368.211 188.184 368.2 189.479L364.531 189.462C364.531 188.842 364.426 188.267 364.216 187.735C364.017 187.193 363.696 186.756 363.253 186.424C362.821 186.081 362.257 185.898 361.56 185.876C360.741 185.854 360.038 186.014 359.451 186.357C358.876 186.701 358.394 187.165 358.007 187.752C357.631 188.339 357.332 188.986 357.11 189.694C356.9 190.392 356.756 191.083 356.679 191.77L356.612 192.351C356.557 192.937 356.535 193.568 356.546 194.243C356.568 194.907 356.673 195.533 356.861 196.119C357.049 196.706 357.359 197.187 357.791 197.563C358.234 197.94 358.842 198.139 359.617 198.161ZM376.435 183.037L373.313 201H369.412L372.533 183.037H376.435ZM373.081 178.389C373.07 177.747 373.28 177.221 373.712 176.812C374.144 176.402 374.675 176.192 375.306 176.181C375.914 176.17 376.435 176.358 376.866 176.745C377.309 177.121 377.53 177.625 377.53 178.256C377.541 178.898 377.326 179.418 376.883 179.816C376.451 180.215 375.925 180.42 375.306 180.431C374.697 180.442 374.177 180.265 373.745 179.899C373.313 179.523 373.092 179.02 373.081 178.389ZM388.039 197.397L389.4 188.781C389.467 188.206 389.428 187.686 389.284 187.221C389.14 186.756 388.875 186.391 388.487 186.125C388.111 185.848 387.613 185.704 386.993 185.693C386.44 185.682 385.92 185.776 385.433 185.976C384.946 186.164 384.531 186.446 384.188 186.822C383.855 187.199 383.634 187.658 383.523 188.2L379.622 188.217C379.688 187.276 379.965 186.457 380.452 185.76C380.95 185.051 381.576 184.47 382.328 184.017C383.092 183.552 383.911 183.214 384.785 183.004C385.671 182.783 386.534 182.677 387.375 182.688C388.592 182.711 389.672 182.971 390.612 183.469C391.553 183.967 392.267 184.67 392.754 185.577C393.252 186.485 393.44 187.58 393.318 188.864L392.007 196.866C391.907 197.497 391.835 198.145 391.791 198.809C391.758 199.462 391.846 200.092 392.057 200.701L392.023 201L388.155 201.017C387.989 200.43 387.906 199.832 387.906 199.224C387.906 198.604 387.951 197.995 388.039 197.397ZM389.849 190.076L389.45 192.55L386.86 192.533C386.329 192.533 385.781 192.583 385.217 192.683C384.663 192.782 384.143 192.954 383.656 193.197C383.169 193.441 382.76 193.773 382.428 194.193C382.096 194.603 381.891 195.118 381.813 195.737C381.758 196.235 381.813 196.667 381.979 197.032C382.157 197.386 382.422 197.669 382.776 197.879C383.131 198.089 383.551 198.2 384.038 198.211C384.691 198.222 385.333 198.095 385.964 197.829C386.606 197.563 387.159 197.187 387.624 196.7C388.1 196.202 388.426 195.632 388.604 194.99L389.649 196.783C389.406 197.458 389.063 198.078 388.62 198.643C388.188 199.207 387.685 199.694 387.109 200.104C386.534 200.513 385.903 200.828 385.217 201.05C384.542 201.271 383.844 201.376 383.125 201.365C382.129 201.343 381.221 201.116 380.402 200.685C379.583 200.242 378.936 199.628 378.46 198.842C377.984 198.056 377.774 197.148 377.829 196.119C377.884 194.957 378.178 193.989 378.709 193.214C379.251 192.428 379.943 191.808 380.784 191.354C381.636 190.89 382.566 190.558 383.573 190.358C384.58 190.159 385.576 190.06 386.562 190.06L389.849 190.076ZM403.943 175.5L399.511 201H395.609L400.025 175.5H403.943ZM421.026 176.828L416.826 201H412.759L416.959 176.828H421.026ZM427.717 187.104L425.31 201H421.392L424.513 183.037H428.182L427.717 187.104ZM426.339 191.354L425.144 191.371C425.276 190.298 425.536 189.241 425.924 188.2C426.322 187.149 426.848 186.208 427.501 185.378C428.154 184.537 428.945 183.873 429.875 183.386C430.816 182.899 431.9 182.672 433.129 182.705C434.103 182.727 434.911 182.921 435.553 183.286C436.206 183.651 436.709 184.144 437.063 184.764C437.429 185.383 437.667 186.092 437.777 186.889C437.888 187.686 437.894 188.521 437.794 189.396L435.868 201H431.934L433.893 189.346C433.959 188.704 433.937 188.128 433.826 187.619C433.715 187.099 433.472 186.689 433.096 186.391C432.719 186.081 432.177 185.92 431.469 185.909C430.694 185.887 430.013 186.031 429.427 186.341C428.84 186.651 428.337 187.077 427.916 187.619C427.495 188.15 427.152 188.743 426.887 189.396C426.632 190.049 426.45 190.701 426.339 191.354ZM450.926 183.037L450.411 185.959H440.583L441.081 183.037H450.926ZM444.684 178.638H448.585L445.613 196.069C445.569 196.457 445.569 196.794 445.613 197.082C445.669 197.37 445.796 197.597 445.995 197.763C446.205 197.918 446.526 198.001 446.958 198.012C447.19 198.023 447.423 198.012 447.655 197.979C447.899 197.945 448.142 197.912 448.386 197.879L448.104 200.967C447.705 201.089 447.296 201.177 446.875 201.232C446.465 201.288 446.05 201.31 445.63 201.299C444.634 201.288 443.831 201.061 443.223 200.618C442.614 200.164 442.188 199.561 441.944 198.809C441.701 198.056 441.623 197.215 441.712 196.285L444.684 178.638ZM458.861 201.332C457.633 201.31 456.543 201.072 455.591 200.618C454.65 200.153 453.87 199.528 453.25 198.742C452.63 197.945 452.182 197.032 451.905 196.003C451.629 194.963 451.535 193.856 451.623 192.683L451.689 192.002C451.811 190.796 452.104 189.633 452.569 188.516C453.034 187.387 453.654 186.385 454.429 185.511C455.215 184.625 456.139 183.928 457.201 183.419C458.264 182.91 459.448 182.672 460.754 182.705C462.005 182.727 463.062 182.987 463.925 183.485C464.788 183.983 465.474 184.647 465.983 185.478C466.493 186.297 466.83 187.226 466.996 188.267C467.173 189.307 467.201 190.386 467.079 191.504L466.847 193.214H453.366L453.831 190.342L463.344 190.358L463.41 190.01C463.51 189.312 463.471 188.654 463.294 188.034C463.128 187.414 462.818 186.905 462.364 186.507C461.91 186.108 461.302 185.898 460.538 185.876C459.708 185.854 458.994 186.025 458.396 186.391C457.81 186.756 457.323 187.248 456.936 187.868C456.548 188.488 456.244 189.163 456.022 189.894C455.812 190.613 455.663 191.316 455.574 192.002L455.508 192.666C455.441 193.319 455.458 193.966 455.558 194.608C455.657 195.25 455.851 195.837 456.139 196.368C456.426 196.888 456.825 197.314 457.334 197.646C457.843 197.967 458.474 198.139 459.227 198.161C460.167 198.183 461.02 197.99 461.783 197.58C462.558 197.16 463.261 196.617 463.892 195.953L465.817 197.995C465.308 198.759 464.677 199.39 463.925 199.888C463.183 200.386 462.375 200.757 461.501 201C460.638 201.232 459.758 201.343 458.861 201.332ZM477.057 175.5L472.624 201H468.723L473.139 175.5H477.057ZM485.457 175.5L481.024 201H477.123L481.539 175.5H485.457ZM492.546 183.037L489.425 201H485.523L488.645 183.037H492.546ZM489.192 178.389C489.181 177.747 489.392 177.221 489.823 176.812C490.255 176.402 490.786 176.192 491.417 176.181C492.026 176.17 492.546 176.358 492.978 176.745C493.42 177.121 493.642 177.625 493.642 178.256C493.653 178.898 493.437 179.418 492.994 179.816C492.562 180.215 492.037 180.42 491.417 180.431C490.808 180.442 490.288 180.265 489.856 179.899C489.425 179.523 489.203 179.02 489.192 178.389ZM507.902 183.037H511.488L508.517 200.485C508.295 202.068 507.775 203.435 506.956 204.586C506.148 205.737 505.102 206.617 503.818 207.226C502.535 207.845 501.096 208.133 499.502 208.089C498.705 208.078 497.919 207.951 497.145 207.707C496.37 207.475 495.65 207.137 494.986 206.694C494.322 206.252 493.752 205.704 493.276 205.051L495.318 202.727C495.827 203.413 496.425 203.955 497.111 204.354C497.798 204.752 498.567 204.962 499.419 204.984C500.349 205.007 501.173 204.835 501.893 204.47C502.612 204.116 503.199 203.606 503.652 202.942C504.117 202.278 504.422 201.493 504.565 200.585L506.89 186.905L507.902 183.037ZM494.505 192.351L494.555 191.985C494.688 190.879 494.953 189.772 495.352 188.665C495.75 187.547 496.281 186.535 496.945 185.627C497.62 184.708 498.439 183.983 499.402 183.452C500.376 182.921 501.511 182.666 502.806 182.688C503.979 182.722 504.942 183.009 505.694 183.552C506.458 184.094 507.045 184.797 507.454 185.66C507.875 186.523 508.157 187.464 508.301 188.482C508.445 189.501 508.489 190.508 508.434 191.504L508.301 192.633C508.124 193.662 507.825 194.697 507.404 195.737C506.984 196.778 506.436 197.729 505.761 198.593C505.097 199.445 504.3 200.126 503.37 200.635C502.451 201.144 501.395 201.382 500.199 201.349C499.015 201.315 498.03 201.022 497.244 200.469C496.458 199.904 495.85 199.179 495.418 198.294C494.986 197.409 494.699 196.446 494.555 195.405C494.422 194.365 494.405 193.347 494.505 192.351ZM498.473 191.985L498.439 192.334C498.373 192.921 498.351 193.54 498.373 194.193C498.395 194.846 498.5 195.466 498.688 196.053C498.877 196.639 499.187 197.126 499.618 197.514C500.05 197.89 500.636 198.089 501.378 198.111C502.274 198.156 503.066 197.967 503.752 197.547C504.449 197.126 505.025 196.567 505.479 195.87C505.943 195.173 506.27 194.42 506.458 193.612L506.923 190.574C506.967 190.01 506.934 189.456 506.823 188.914C506.713 188.361 506.519 187.863 506.242 187.42C505.977 186.977 505.622 186.623 505.18 186.357C504.737 186.081 504.2 185.937 503.569 185.926C502.739 185.893 502.02 186.059 501.411 186.424C500.813 186.789 500.31 187.276 499.9 187.885C499.502 188.493 499.187 189.158 498.954 189.877C498.722 190.596 498.561 191.299 498.473 191.985ZM520.42 201.332C519.191 201.31 518.101 201.072 517.149 200.618C516.209 200.153 515.428 199.528 514.809 198.742C514.189 197.945 513.741 197.032 513.464 196.003C513.187 194.963 513.093 193.856 513.182 192.683L513.248 192.002C513.37 190.796 513.663 189.633 514.128 188.516C514.593 187.387 515.213 186.385 515.987 185.511C516.773 184.625 517.697 183.928 518.76 183.419C519.822 182.91 521.007 182.672 522.312 182.705C523.563 182.727 524.62 182.987 525.483 183.485C526.347 183.983 527.033 184.647 527.542 185.478C528.051 186.297 528.389 187.226 528.555 188.267C528.732 189.307 528.759 190.386 528.638 191.504L528.405 193.214H514.925L515.39 190.342L524.902 190.358L524.969 190.01C525.068 189.312 525.03 188.654 524.853 188.034C524.687 187.414 524.377 186.905 523.923 186.507C523.469 186.108 522.86 185.898 522.097 185.876C521.267 185.854 520.553 186.025 519.955 186.391C519.368 186.756 518.882 187.248 518.494 187.868C518.107 188.488 517.802 189.163 517.581 189.894C517.371 190.613 517.221 191.316 517.133 192.002L517.066 192.666C517 193.319 517.017 193.966 517.116 194.608C517.216 195.25 517.41 195.837 517.697 196.368C517.985 196.888 518.383 197.314 518.893 197.646C519.402 197.967 520.033 198.139 520.785 198.161C521.726 198.183 522.578 197.99 523.342 197.58C524.117 197.16 524.819 196.617 525.45 195.953L527.376 197.995C526.867 198.759 526.236 199.39 525.483 199.888C524.742 200.386 523.934 200.757 523.06 201C522.196 201.232 521.316 201.343 520.42 201.332ZM536.291 187.104L533.884 201H529.966L533.087 183.037H536.756L536.291 187.104ZM534.913 191.354L533.718 191.371C533.851 190.298 534.111 189.241 534.498 188.2C534.896 187.149 535.422 186.208 536.075 185.378C536.728 184.537 537.52 183.873 538.449 183.386C539.39 182.899 540.475 182.672 541.703 182.705C542.677 182.727 543.485 182.921 544.127 183.286C544.78 183.651 545.284 184.144 545.638 184.764C546.003 185.383 546.241 186.092 546.352 186.889C546.462 187.686 546.468 188.521 546.368 189.396L544.442 201H540.508L542.467 189.346C542.533 188.704 542.511 188.128 542.4 187.619C542.29 187.099 542.046 186.689 541.67 186.391C541.294 186.081 540.751 185.92 540.043 185.909C539.268 185.887 538.588 186.031 538.001 186.341C537.414 186.651 536.911 187.077 536.49 187.619C536.07 188.15 535.727 188.743 535.461 189.396C535.206 190.049 535.024 190.701 534.913 191.354ZM556.08 198.161C556.733 198.172 557.331 198.05 557.873 197.796C558.415 197.541 558.864 197.176 559.218 196.7C559.583 196.224 559.838 195.676 559.981 195.057L563.684 195.04C563.54 196.324 563.086 197.442 562.322 198.394C561.57 199.345 560.629 200.081 559.5 200.602C558.382 201.111 557.198 201.354 555.947 201.332C554.674 201.31 553.584 201.05 552.677 200.552C551.78 200.054 551.055 199.384 550.502 198.543C549.949 197.702 549.561 196.75 549.34 195.688C549.13 194.614 549.08 193.502 549.19 192.351L549.257 191.753C549.39 190.524 549.683 189.362 550.137 188.267C550.602 187.171 551.216 186.202 551.979 185.361C552.754 184.509 553.667 183.845 554.719 183.369C555.77 182.893 556.954 182.672 558.271 182.705C559.6 182.727 560.745 183.032 561.708 183.618C562.671 184.205 563.407 185.007 563.916 186.025C564.425 187.033 564.674 188.184 564.663 189.479L560.994 189.462C560.994 188.842 560.889 188.267 560.679 187.735C560.479 187.193 560.159 186.756 559.716 186.424C559.284 186.081 558.72 185.898 558.022 185.876C557.203 185.854 556.501 186.014 555.914 186.357C555.339 186.701 554.857 187.165 554.47 187.752C554.093 188.339 553.795 188.986 553.573 189.694C553.363 190.392 553.219 191.083 553.142 191.77L553.075 192.351C553.02 192.937 552.998 193.568 553.009 194.243C553.031 194.907 553.136 195.533 553.324 196.119C553.512 196.706 553.822 197.187 554.254 197.563C554.697 197.94 555.305 198.139 556.08 198.161ZM573.678 201.332C572.449 201.31 571.359 201.072 570.407 200.618C569.466 200.153 568.686 199.528 568.066 198.742C567.447 197.945 566.998 197.032 566.722 196.003C566.445 194.963 566.351 193.856 566.439 192.683L566.506 192.002C566.628 190.796 566.921 189.633 567.386 188.516C567.851 187.387 568.47 186.385 569.245 185.511C570.031 184.625 570.955 183.928 572.018 183.419C573.08 182.91 574.264 182.672 575.57 182.705C576.821 182.727 577.878 182.987 578.741 183.485C579.604 183.983 580.291 184.647 580.8 185.478C581.309 186.297 581.646 187.226 581.812 188.267C581.99 189.307 582.017 190.386 581.896 191.504L581.663 193.214H568.183L568.647 190.342L578.16 190.358L578.227 190.01C578.326 189.312 578.287 188.654 578.11 188.034C577.944 187.414 577.634 186.905 577.181 186.507C576.727 186.108 576.118 185.898 575.354 185.876C574.524 185.854 573.811 186.025 573.213 186.391C572.626 186.756 572.139 187.248 571.752 187.868C571.365 188.488 571.06 189.163 570.839 189.894C570.629 190.613 570.479 191.316 570.391 192.002L570.324 192.666C570.258 193.319 570.274 193.966 570.374 194.608C570.474 195.25 570.667 195.837 570.955 196.368C571.243 196.888 571.641 197.314 572.15 197.646C572.66 197.967 573.29 198.139 574.043 198.161C574.984 198.183 575.836 197.99 576.6 197.58C577.374 197.16 578.077 196.617 578.708 195.953L580.634 197.995C580.125 198.759 579.494 199.39 578.741 199.888C578 200.386 577.192 200.757 576.317 201C575.454 201.232 574.574 201.343 573.678 201.332Z" fill="black"/>
<path d="M58.1484 123.789C57.8203 126.039 57.0703 127.984 55.8984 129.625C54.7266 131.219 53.2969 132.531 51.6094 133.562C49.9219 134.641 48.0469 135.438 45.9844 135.953C43.9688 136.422 41.9297 136.656 39.8672 136.656C37.0547 136.609 34.5703 136.211 32.4141 135.461C30.2578 134.664 28.5 133.539 27.1406 132.086C25.7344 130.586 24.6797 128.758 23.9766 126.602C23.2734 124.445 22.9688 121.984 23.0625 119.219L4.21875 119.148C4.07812 124.305 4.85156 128.922 6.53906 133C8.27344 137.031 10.7109 140.477 13.8516 143.336C16.9922 146.195 20.6953 148.398 24.9609 149.945C29.2266 151.445 33.8203 152.242 38.7422 152.336C43.3359 152.43 47.9062 151.938 52.4531 150.859C57.0469 149.734 61.1016 147.859 64.6172 145.234C67.9922 142.75 70.8281 139.773 73.125 136.305C75.4219 132.789 76.7344 128.57 77.0625 123.648C77.3438 119.383 76.7812 115.539 75.375 112.117C74.0156 108.648 72.0938 105.602 69.6094 102.977C67.0781 100.352 64.125 98.1016 60.75 96.2266C57.375 94.3047 53.8359 92.7109 50.1328 91.4453C48.3984 90.8828 46.4766 90.2266 44.3672 89.4766C42.2578 88.6797 40.3125 87.6953 38.5312 86.5234C36.7031 85.3984 35.25 84.0156 34.1719 82.375C33.0938 80.6875 32.6953 78.6484 32.9766 76.2578C33.2578 74.0078 33.9844 72.0625 35.1562 70.4219C36.3281 68.7344 37.7578 67.3281 39.4453 66.2031C41.1328 65.125 42.9844 64.3281 45 63.8125C47.0625 63.25 49.125 62.9922 51.1875 63.0391C53.625 63.0859 55.7344 63.4844 57.5156 64.2344C59.3438 64.9844 60.8672 66.0391 62.0859 67.3984C63.2578 68.7578 64.125 70.3984 64.6875 72.3203C65.2969 74.2422 65.5781 76.3516 65.5312 78.6484L84.2344 78.7188C84.375 73.9375 83.6719 69.625 82.125 65.7812C80.625 61.9375 78.4688 58.6563 75.6562 55.9375C72.8438 53.2187 69.4688 51.1094 65.5312 49.6094C61.5938 48.1094 57.3047 47.3125 52.6641 47.2188C48.2109 47.125 43.7578 47.6641 39.3047 48.8359C34.8984 50.0078 30.8906 51.8125 27.2812 54.25C23.6719 56.6875 20.6719 59.7344 18.2812 63.3906C15.8906 67.0469 14.5547 71.3125 14.2734 76.1875C13.9922 80.5469 14.625 84.4375 16.1719 87.8594C17.7656 91.2344 19.9219 94.1875 22.6406 96.7188C25.3594 99.25 28.4766 101.43 31.9922 103.258C35.5547 105.039 39.1641 106.516 42.8203 107.688C44.7422 108.344 46.6875 109.094 48.6562 109.938C50.625 110.781 52.3828 111.812 53.9297 113.031C55.4297 114.297 56.5781 115.797 57.375 117.531C58.2188 119.266 58.4766 121.352 58.1484 123.789ZM108 140.172C108 143.781 109.195 146.734 111.586 149.031C114.023 151.328 117.094 152.477 120.797 152.477C124.5 152.477 127.664 151.234 130.289 148.75C132.961 146.266 134.297 143.078 134.297 139.188C134.297 135.578 133.078 132.602 130.641 130.258C128.25 127.867 125.203 126.672 121.5 126.672C117.562 126.672 114.328 127.961 111.797 130.539C109.266 133.117 108 136.328 108 140.172ZM239.625 106.141L242.367 90.5312H201.516L206.016 64.7266H253.477L256.289 48.625H189.492L171.703 151H238.711L241.523 135.039H193.781L198.844 106.141H239.625ZM277.031 140.172C277.031 143.781 278.227 146.734 280.617 149.031C283.055 151.328 286.125 152.477 289.828 152.477C293.531 152.477 296.695 151.234 299.32 148.75C301.992 146.266 303.328 143.078 303.328 139.188C303.328 135.578 302.109 132.602 299.672 130.258C297.281 127.867 294.234 126.672 290.531 126.672C286.594 126.672 283.359 127.961 280.828 130.539C278.297 133.117 277.031 136.328 277.031 140.172ZM392.484 129.625L394.523 151H414.281L400.078 48.625H382.57L332.297 151H353.18L362.742 129.625H392.484ZM370.406 112.82L387.281 75.3438L390.867 112.82H370.406ZM446.062 140.172C446.062 143.781 447.258 146.734 449.648 149.031C452.086 151.328 455.156 152.477 458.859 152.477C462.562 152.477 465.727 151.234 468.352 148.75C471.023 146.266 472.359 143.078 472.359 139.188C472.359 135.578 471.141 132.602 468.703 130.258C466.312 127.867 463.266 126.672 459.562 126.672C455.625 126.672 452.391 127.961 449.859 130.539C447.328 133.117 446.062 136.328 446.062 140.172ZM530.648 48.625L527.836 64.5859H546.75L534.516 135.109H515.672L512.859 151H570.445L573.258 135.109H553.852L566.086 64.5859H585.422L588.234 48.625H530.648Z" fill="#215CAF"/>
</svg>
